<svg xmlns="http://www.w3.org/2000/svg" width="512" height="512" viewBox="0 0 512 512" version="1.1"><path d="" stroke="none" fill="#080404" fill-rule="evenodd"/><path d="M 196 7.664 C 184.363 9.688, 165.708 16.024, 154.802 21.657 C 116.309 41.538, 89.008 77.662, 79.779 120.927 C 77.963 129.440, 77.687 135.094, 77.286 172 L 76.835 213.500 41.417 305.596 C 21.938 356.249, 6 398.830, 6 400.220 C 6 410.449, 18.840 426.906, 38 441.234 C 79.681 472.403, 140.939 494.834, 208.500 503.665 C 228.592 506.292, 283.408 506.292, 303.500 503.665 C 371.061 494.834, 432.319 472.403, 474 441.234 C 493.160 426.906, 506 410.449, 506 400.220 C 506 398.830, 490.062 356.249, 470.583 305.596 L 435.165 213.500 434.714 172 C 434.222 126.746, 433.678 121.590, 427.470 103.427 C 410.382 53.433, 366.771 16.243, 315.074 7.580 C 301.798 5.355, 208.901 5.421, 196 7.664 M 175 159.187 C 165.011 160.425, 151.107 165.153, 142.500 170.238 C 133.840 175.355, 121.054 188.044, 114.562 197.963 C 106.118 210.863, 100.045 225.226, 65.994 312.836 C 41.751 375.209, 32.991 398.828, 33.439 400.611 C 34.921 406.516, 42.271 409.045, 46.924 405.250 C 48.383 404.060, 59.773 375.999, 82.541 317.500 C 100.950 270.200, 117.792 227.781, 119.967 223.236 C 134.431 193.010, 151.805 179.373, 180.317 175.869 C 198.173 173.675, 215.070 177.857, 233.892 189.129 C 251.342 199.579, 260.658 199.579, 278.108 189.129 C 296.930 177.857, 313.827 173.675, 331.683 175.869 C 359.983 179.347, 377.367 192.822, 391.556 222.280 C 393.999 227.351, 411.058 270.200, 429.464 317.500 C 452.231 376.005, 463.617 404.059, 465.076 405.250 C 469.722 409.040, 477.079 406.517, 478.557 400.627 C 479 398.865, 470.112 374.903, 446.001 312.852 C 411.443 223.914, 405.748 210.504, 396.971 197.398 C 390.113 187.157, 378.203 175.394, 369.445 170.211 C 353.914 161.022, 331.314 156.535, 312.316 158.869 C 297.033 160.748, 280.630 166.913, 267.207 175.826 C 262.501 178.951, 260.913 179.467, 256 179.467 C 251.087 179.467, 249.499 178.951, 244.793 175.826 C 223.302 161.557, 200.244 156.060, 175 159.187 M 177.541 204.569 C 173.714 205.329, 166.964 207.695, 162.541 209.826 C 146.972 217.330, 139.417 225.562, 134.477 240.406 C 129.200 256.263, 131.584 266.673, 141.684 271.875 C 143.202 272.657, 156.631 272.993, 185.684 272.978 C 224.550 272.958, 227.794 272.823, 231.669 271.063 C 237.929 268.221, 238.247 267.038, 237.833 248.132 C 237.493 232.653, 237.285 231.106, 234.824 225.825 C 229.536 214.477, 220.772 207.809, 206.824 204.520 C 199.096 202.698, 186.862 202.719, 177.541 204.569 M 304.725 204.566 C 291.213 207.840, 282.381 214.655, 277.176 225.825 C 274.715 231.106, 274.507 232.653, 274.167 248.132 C 273.753 267.038, 274.071 268.221, 280.331 271.063 C 284.206 272.822, 287.450 272.958, 326.300 272.978 C 371.107 273.002, 370.936 273.019, 375.625 267.845 C 379.271 263.821, 380.342 260.708, 380.246 254.406 C 380.131 246.787, 376.093 234.324, 371.457 227.282 C 359.794 209.565, 328.317 198.850, 304.725 204.566 M 247.183 293.902 C 240.668 296.152, 235.521 300.883, 232.387 307.500 C 230.201 312.117, 230.019 313.744, 230.010 328.750 L 230 345 256 345 L 282 345 281.990 328.750 C 281.981 313.833, 281.789 312.090, 279.647 307.500 C 276.576 300.919, 270.460 295.511, 263.878 293.556 C 257.163 291.562, 253.752 291.633, 247.183 293.902 M 221 399 L 221 434 234 434 L 247 434 247 399 L 247 364 234 364 L 221 364 221 399 M 265 399 L 265 434 278 434 L 291 434 291 399 L 291 364 278 364 L 265 364 265 399 M 193.228 390.271 L 185 398.542 185 416.271 L 185 434 193.500 434 L 202 434 202 408 C 202 393.700, 201.878 382, 201.728 382 C 201.578 382, 197.753 385.722, 193.228 390.271 M 310 407.772 L 310 434 318.500 434 L 327 434 327 416.228 L 327 398.456 318.500 390 L 310 381.544 310 407.772 M 140.424 425.251 C 131.631 433.309, 137.205 447.273, 149.214 447.273 C 153.906 447.273, 157.731 444.742, 160.399 439.872 C 162.999 435.128, 161.931 429.731, 157.521 425.321 C 154.625 422.425, 153.545 422, 149.085 422 C 144.709 422, 143.459 422.469, 140.424 425.251 M 354.479 425.321 C 350.069 429.731, 349.001 435.128, 351.601 439.872 C 354.269 444.742, 358.094 447.273, 362.786 447.273 C 374.795 447.273, 380.369 433.309, 371.576 425.251 C 368.541 422.469, 367.291 422, 362.915 422 C 358.455 422, 357.375 422.425, 354.479 425.321" stroke="none" fill="#040404" fill-rule="evenodd"/></svg>